<svg width="175" height="164" viewBox="0 0 175 164" fill="none" xmlns="http://www.w3.org/2000/svg">
<g clip-path="url(#clip0_4_16709)">
<path d="M82.5047 1.36439L77.1498 4.28618L11.1754 40.2832L5.8204 43.205C3.222 44.6266 1.29358 47.0208 0.458219 49.8624C-0.377142 52.704 -0.0512252 55.7609 1.36447 58.3625L50.4941 148.406C51.9156 151.004 54.3098 152.933 57.1514 153.768C59.993 154.603 63.0499 154.277 65.6515 152.862L65.6653 152.854L142.322 111.029L142.336 111.021C144.934 109.6 146.863 107.205 147.698 104.364C148.533 101.522 148.207 98.4653 146.792 95.8637L97.6622 5.82036C96.2406 3.22196 93.8464 1.29353 91.0048 0.458166C88.1633 -0.377202 85.1063 -0.0512926 82.5047 1.36439Z" fill="#F2F2F2"/>
<path d="M84.0439 4.18614L77.7013 7.6468L13.7019 42.5662L7.35944 46.0268C5.50905 47.0391 4.13577 48.7441 3.54089 50.7677C2.946 52.7912 3.17809 54.9681 4.18625 56.8208L53.3158 146.864C54.3281 148.714 56.0331 150.088 58.0567 150.683C60.0802 151.278 62.2571 151.045 64.1098 150.037L64.1236 150.03L140.78 108.204L140.794 108.197C142.645 107.184 144.018 105.479 144.613 103.456C145.208 101.432 144.975 99.2553 143.967 97.4027L94.8377 7.35938C93.8254 5.509 92.1205 4.13573 90.097 3.54084C88.0734 2.94594 85.8965 3.17802 84.0439 4.18614Z" fill="white"/>
<path d="M85.1011 32.1356L56.5112 47.735C56.078 47.9713 55.5688 48.0259 55.0954 47.8867C54.6221 47.7475 54.2234 47.4261 53.987 46.9929C53.7507 46.5598 53.6961 46.0506 53.8353 45.5772C53.9745 45.1038 54.296 44.7051 54.7291 44.4688L83.3191 28.8695C83.7522 28.6332 84.2614 28.5786 84.7348 28.7177C85.2082 28.8569 85.6069 29.1784 85.8432 29.6115C86.0795 30.0446 86.1341 30.5539 85.9949 31.0273C85.8558 31.5006 85.5343 31.8993 85.1012 32.1356H85.1011Z" fill="#F2F2F2"/>
<path d="M94.8449 33.9717L59.5185 53.2466C59.0854 53.4829 58.5761 53.5375 58.1027 53.3983C57.6294 53.2592 57.2307 52.9377 56.9944 52.5045C56.758 52.0714 56.7035 51.5622 56.8426 51.0888C56.9818 50.6154 57.3033 50.2167 57.7364 49.9804L93.0628 30.7055C93.2773 30.5885 93.5127 30.5149 93.7556 30.4889C93.9985 30.4628 94.2442 30.4849 94.4786 30.5538C94.713 30.6227 94.9315 30.7371 95.1217 30.8905C95.3118 31.0438 95.4699 31.2331 95.587 31.4476C95.704 31.662 95.7776 31.8974 95.8036 32.1404C95.8297 32.3833 95.8076 32.6289 95.7387 32.8633C95.6698 33.0977 95.5554 33.3162 95.402 33.5064C95.2487 33.6966 95.0594 33.8547 94.8449 33.9717H94.8449Z" fill="#F2F2F2"/>
<path d="M44.7577 41.2416L18.3994 55.6232C18.1919 55.7365 18.0379 55.9276 17.9713 56.1544C17.9046 56.3812 17.9307 56.6251 18.0439 56.8327L29.2679 77.4038C29.3812 77.6113 29.5722 77.7653 29.799 77.832C30.0258 77.8986 30.2698 77.8725 30.4774 77.7594L56.8357 63.3777C57.0432 63.2644 57.1972 63.0734 57.2639 62.8466C57.3305 62.6198 57.3044 62.3758 57.1912 62.1683L45.9672 41.5971C45.8539 41.3897 45.6629 41.2356 45.4361 41.169C45.2093 41.1023 44.9653 41.1284 44.7577 41.2416Z" fill="#F2F2F2"/>
<path d="M99.287 58.237L60.5082 79.3955C60.2938 79.5126 60.0584 79.5862 59.8155 79.6122C59.5725 79.6383 59.3269 79.6162 59.0925 79.5473C58.8581 79.4784 58.6396 79.364 58.4494 79.2106C58.2592 79.0573 58.1011 78.868 57.9841 78.6535C57.8671 78.4391 57.7935 78.2037 57.7674 77.9607C57.7414 77.7178 57.7635 77.4722 57.8324 77.2378C57.9013 77.0034 58.0157 76.7849 58.169 76.5947C58.3224 76.4045 58.5117 76.2464 58.7261 76.1294L97.5049 54.9709C97.938 54.7345 98.4473 54.68 98.9206 54.8191C99.394 54.9583 99.7927 55.2798 100.029 55.7129C100.265 56.146 100.32 56.6553 100.181 57.1286C100.042 57.602 99.7201 58.0007 99.287 58.237H99.287Z" fill="#F2F2F2"/>
<path d="M109.031 60.0731L63.5153 84.9072C63.0822 85.1435 62.5729 85.1981 62.0996 85.059C61.6262 84.9198 61.2275 84.5983 60.9912 84.1652C60.7549 83.7321 60.7003 83.2228 60.8394 82.7494C60.9786 82.2761 61.3001 81.8774 61.7332 81.6411L107.248 56.807C107.682 56.5707 108.191 56.5161 108.664 56.6552C109.138 56.7944 109.536 57.1159 109.773 57.549C110.009 57.9821 110.063 58.4914 109.924 58.9648C109.785 59.4381 109.464 59.8368 109.031 60.0731H109.031Z" fill="#F2F2F2"/>
<path d="M45.7392 96.7237C50.0982 96.7237 53.6318 93.1901 53.6318 88.8312C53.6318 84.4722 50.0982 80.9386 45.7392 80.9386C41.3803 80.9386 37.8467 84.4722 37.8467 88.8312C37.8467 93.1901 41.3803 96.7237 45.7392 96.7237Z" fill="#F2F2F2"/>
<path d="M163.829 38.4652H76.4722C73.5104 38.4685 70.6708 39.6466 68.5765 41.741C66.4822 43.8353 65.3041 46.6749 65.3008 49.6367V152.211C65.3041 155.173 66.4822 158.013 68.5765 160.107C70.6708 162.201 73.5104 163.379 76.4722 163.383H163.829C166.79 163.379 169.63 162.201 171.724 160.107C173.819 158.013 174.997 155.173 175 152.211V49.6367C174.997 46.6749 173.819 43.8353 171.724 41.741C169.63 39.6466 166.79 38.4685 163.829 38.4652Z" fill="#E6E6E6"/>
<path d="M163.829 41.6812H76.4723C74.3631 41.6835 72.341 42.5224 70.8496 44.0139C69.3581 45.5053 68.5192 47.5274 68.5168 49.6366V152.211C68.5192 154.32 69.3581 156.342 70.8496 157.834C72.341 159.325 74.3631 160.164 76.4723 160.166H163.829C165.938 160.164 167.96 159.325 169.451 157.834C170.943 156.342 171.782 154.32 171.784 152.211V49.6366C171.782 47.5274 170.943 45.5053 169.451 44.0139C167.96 42.5225 165.938 41.6835 163.829 41.6812Z" fill="white"/>
<path d="M151.37 66.7227H118.801C118.308 66.7227 117.835 66.5266 117.486 66.1778C117.137 65.8289 116.941 65.3557 116.941 64.8623C116.941 64.3689 117.137 63.8957 117.486 63.5468C117.835 63.198 118.308 63.002 118.801 63.002H151.37C151.615 63.0017 151.857 63.0496 152.083 63.143C152.309 63.2363 152.514 63.3733 152.687 63.5461C152.86 63.7189 152.997 63.9241 153.091 64.1499C153.184 64.3757 153.232 64.6178 153.232 64.8623C153.232 65.1068 153.184 65.3489 153.091 65.5747C152.997 65.8005 152.86 66.0057 152.687 66.1785C152.514 66.3513 152.309 66.4883 152.083 66.5816C151.857 66.675 151.615 66.7229 151.37 66.7227Z" fill="#CCCCCC"/>
<path d="M159.044 73.0013H118.801C118.308 73.0013 117.835 72.8053 117.486 72.4565C117.137 72.1076 116.941 71.6344 116.941 71.141C116.941 70.6476 117.137 70.1744 117.486 69.8255C117.835 69.4766 118.308 69.2806 118.801 69.2806H159.044C159.537 69.2806 160.011 69.4766 160.359 69.8255C160.708 70.1744 160.904 70.6476 160.904 71.141C160.904 71.6344 160.708 72.1076 160.359 72.4565C160.011 72.8053 159.537 73.0013 159.044 73.0013Z" fill="#5E80BB"/>
<path d="M111.594 55.3929H81.5671C81.3307 55.393 81.1041 55.4869 80.9369 55.6541C80.7698 55.8213 80.6758 56.0479 80.6758 56.2843V79.7183C80.6758 79.9547 80.7698 80.1814 80.9369 80.3485C81.1041 80.5157 81.3307 80.6096 81.5671 80.6097H111.594C111.83 80.6096 112.057 80.5157 112.224 80.3485C112.391 80.1814 112.485 79.9547 112.485 79.7183V56.2843C112.485 56.0479 112.391 55.8213 112.224 55.6541C112.057 55.4869 111.83 55.393 111.594 55.3929Z" fill="#E6E6E6"/>
<path d="M89.8038 69.7831C89.8162 71.7613 89.087 73.6725 87.7601 75.1398C86.4472 76.5807 84.4926 77.5363 82.5201 77.1409C80.7038 76.7768 79.2279 75.1894 79.412 73.269C79.4426 72.8531 79.5635 72.4488 79.7663 72.0843C79.9691 71.7199 80.249 71.4041 80.5863 71.1589C80.9237 70.9137 81.3105 70.745 81.7198 70.6646C82.1291 70.5842 82.5509 70.5941 82.956 70.6934C84.6813 71.1412 85.3688 73.6278 83.9311 74.795C83.5861 75.0751 83.0904 74.5853 83.4386 74.3026C84.3891 73.531 84.0955 71.843 82.9483 71.4197C81.6126 70.9269 80.1975 71.9869 80.1015 73.3524C79.9876 74.9713 81.2278 76.1905 82.7488 76.4776C84.3941 76.7881 86.0254 75.946 87.1403 74.7837C88.418 73.4339 89.1231 71.6416 89.1074 69.7831C89.1105 69.6928 89.1486 69.6073 89.2136 69.5445C89.2785 69.4818 89.3653 69.4467 89.4556 69.4467C89.5459 69.4467 89.6327 69.4818 89.6977 69.5445C89.7626 69.6073 89.8007 69.6928 89.8038 69.7831Z" fill="#2F2E41"/>
<path d="M96.6038 74.2101C103.465 74.2101 109.027 68.6478 109.027 61.7865C109.027 54.9251 103.465 49.3629 96.6038 49.3629C89.7424 49.3629 84.1802 54.9251 84.1802 61.7865C84.1802 68.6478 89.7424 74.2101 96.6038 74.2101Z" fill="#5E80BB"/>
<path d="M95.9682 67.0875L95.9553 66.6233C96.819 66.5992 97.5805 66.545 98.1527 66.127C98.3149 66.0018 98.4482 65.8431 98.5436 65.6617C98.639 65.4803 98.6942 65.2805 98.7055 65.0758C98.7155 64.9508 98.6966 64.8251 98.6502 64.7086C98.6038 64.5921 98.5311 64.4878 98.4378 64.4039C98.058 64.0832 97.4469 64.187 97.0014 64.3912L96.6173 64.5674L97.3539 59.1841L97.8139 59.2471L97.1873 63.8263C97.7926 63.6484 98.3534 63.725 98.7375 64.0494C98.885 64.1781 99.0007 64.3393 99.0757 64.5202C99.1506 64.7011 99.1827 64.8968 99.1694 65.0922C99.1558 65.3671 99.0823 65.6358 98.954 65.8793C98.8257 66.1228 98.6456 66.3354 98.4265 66.502C97.6913 67.0392 96.7359 67.066 95.9682 67.0875Z" fill="#2F2E41"/>
<path d="M102.589 59.642H100.089V60.1062H102.589V59.642Z" fill="#2F2E41"/>
<path d="M94.6965 59.642H92.196V60.1062H94.6965V59.642Z" fill="#2F2E41"/>
<path d="M89.7219 80.6097C90.6531 80.0188 91.6596 79.5558 92.7142 79.2331C92.6135 78.8754 92.6151 78.4966 92.7188 78.1398C92.8588 77.689 93.1408 77.2955 93.5228 77.0181C93.9047 76.7407 94.3661 76.5943 94.8382 76.6007H97.8652C98.338 76.5947 98.8001 76.7415 99.1828 77.0192C99.5656 77.2969 99.8484 77.6907 99.9893 78.1421C100.093 78.4982 100.095 78.8762 99.9938 79.2331C101.048 79.5562 102.055 80.0192 102.986 80.6097H89.7219Z" fill="#2F2E41"/>
<path d="M110.835 57.1758C110.608 56.9017 110.33 56.6753 110.015 56.5096C109.739 56.3655 109.433 56.2899 109.122 56.2891C108.694 56.2943 108.279 56.434 107.935 56.6883C106.991 57.3569 106.336 58.7984 106.336 60.4675C106.336 62.5613 107.367 64.2977 108.706 64.5995C108.842 64.6301 108.982 64.6456 109.122 64.6459C110.656 64.6459 111.907 62.7726 111.907 60.4675C111.907 59.1304 111.487 57.9395 110.835 57.1758Z" fill="#3F3D56"/>
<path d="M85.3185 56.5885H85.3162C85.0058 56.3958 84.6485 56.2922 84.2832 56.2891C83.9719 56.2899 83.6654 56.3655 83.3894 56.5096C83.0749 56.6753 82.7964 56.9017 82.57 57.1758L82.5677 57.1781C81.9177 57.9419 81.4976 59.1327 81.4976 60.4675C81.4976 62.2688 82.2589 63.8056 83.3267 64.3929C83.6191 64.5567 83.9481 64.6437 84.2832 64.6459C84.3577 64.6459 84.4321 64.6412 84.506 64.632H84.5083C85.9383 64.4602 87.0688 62.6588 87.0688 60.4675C87.0688 58.7125 86.3422 57.206 85.3185 56.5885Z" fill="#3F3D56"/>
<path d="M83.5009 63.9933C83.5561 63.9933 83.6106 63.9801 83.6598 63.9548C83.7089 63.9295 83.7514 63.893 83.7836 63.8481C83.8159 63.8031 83.837 63.7512 83.8452 63.6966C83.8534 63.6419 83.8485 63.5861 83.8308 63.5337C83.1654 61.5547 82.9652 59.4489 83.2458 57.38C83.5265 55.311 84.2805 53.3347 85.4491 51.6045C86.6178 49.8743 88.1696 48.4369 89.9841 47.404C91.7986 46.3711 93.8268 45.7705 95.9112 45.6489C97.9955 45.5273 100.08 45.888 102.002 46.7028C103.924 47.5177 105.633 48.7649 106.995 50.3474C108.357 51.93 109.335 53.8052 109.855 55.8275C110.374 57.8497 110.42 59.9645 109.989 62.0075C109.97 62.0978 109.988 62.1921 110.038 62.2694C110.089 62.3468 110.168 62.401 110.258 62.42C110.349 62.4391 110.443 62.4215 110.52 62.3711C110.598 62.3206 110.652 62.2416 110.671 62.1512C111.124 60.0033 111.076 57.7798 110.53 55.6535C109.984 53.5272 108.955 51.5555 107.523 49.8915C106.092 48.2276 104.295 46.9162 102.274 46.0594C100.253 45.2026 98.0616 44.8234 95.8701 44.9513C93.6786 45.0792 91.5462 45.7108 89.6385 46.7969C87.7308 47.883 86.0992 49.3945 84.8707 51.2137C83.6421 53.033 82.8496 55.111 82.5549 57.2863C82.2601 59.4617 82.4709 61.6757 83.1709 63.7563C83.1942 63.8253 83.2386 63.8853 83.2978 63.9279C83.357 63.9704 83.428 63.9933 83.5009 63.9933Z" fill="#3F3D56"/>
<path d="M102.845 53.7371C103.337 54.4087 103.094 55.3136 102.576 55.8926C101.901 56.6459 100.826 56.6935 99.892 56.5536C98.8441 56.3967 97.7325 55.9058 96.6716 56.2366C95.7673 56.5186 95.1223 57.3388 94.1829 57.5448C93.3497 57.7275 92.3535 57.4857 92.0614 56.5977C91.921 56.1709 92.5933 55.9881 92.7329 56.4125C92.9219 56.987 93.7377 56.9756 94.205 56.8165C94.9541 56.5614 95.5313 55.9411 96.2676 55.6448C97.1356 55.2954 98.0774 55.4532 98.9611 55.6522C99.7941 55.8397 100.753 56.1178 101.583 55.7675C102.197 55.5082 102.685 54.6915 102.243 54.0886C101.978 53.7267 102.582 53.3789 102.845 53.7371Z" fill="#2F2E41"/>
<path d="M151.321 96.4298H107.146C106.901 96.4298 106.659 96.3817 106.434 96.2882C106.208 96.1947 106.003 96.0577 105.83 95.8849C105.657 95.7122 105.52 95.5071 105.427 95.2814C105.333 95.0557 105.285 94.8138 105.285 94.5695C105.285 94.3251 105.333 94.0832 105.427 93.8575C105.52 93.6318 105.657 93.4267 105.83 93.254C106.003 93.0812 106.208 92.9442 106.434 92.8507C106.659 92.7572 106.901 92.7091 107.146 92.7091H151.321C151.814 92.7097 152.287 92.9059 152.635 93.2547C152.984 93.6035 153.179 94.0764 153.179 94.5695C153.179 95.0625 152.984 95.5354 152.635 95.8842C152.287 96.233 151.814 96.4293 151.321 96.4298Z" fill="#E6E6E6"/>
<path d="M158.995 102.708H107.146C106.901 102.709 106.659 102.661 106.433 102.567C106.207 102.474 106.002 102.337 105.829 102.164C105.656 101.992 105.519 101.786 105.425 101.561C105.331 101.335 105.283 101.093 105.283 100.848C105.283 100.604 105.331 100.362 105.425 100.136C105.519 99.9099 105.656 99.7047 105.829 99.5319C106.002 99.3592 106.207 99.2222 106.433 99.1288C106.659 99.0354 106.901 98.9875 107.146 98.9878H158.995C159.24 98.9875 159.482 99.0354 159.708 99.1288C159.934 99.2222 160.139 99.3592 160.312 99.5319C160.485 99.7047 160.622 99.9099 160.716 100.136C160.809 100.362 160.858 100.604 160.858 100.848C160.858 101.093 160.809 101.335 160.716 101.561C160.622 101.786 160.485 101.992 160.312 102.164C160.139 102.337 159.934 102.474 159.708 102.567C159.482 102.661 159.24 102.709 158.995 102.708Z" fill="#E6E6E6"/>
<path d="M151.321 118.996H107.146C106.652 118.996 106.179 118.8 105.83 118.451C105.481 118.103 105.285 117.629 105.285 117.136C105.285 116.643 105.481 116.169 105.83 115.821C106.179 115.472 106.652 115.276 107.146 115.276H151.321C151.814 115.276 152.288 115.472 152.636 115.821C152.985 116.169 153.181 116.643 153.181 117.136C153.181 117.629 152.985 118.103 152.636 118.451C152.288 118.8 151.814 118.996 151.321 118.996Z" fill="#E6E6E6"/>
<path d="M158.995 125.275H107.146C106.652 125.275 106.179 125.079 105.83 124.73C105.481 124.381 105.285 123.908 105.285 123.415C105.285 122.921 105.481 122.448 105.83 122.099C106.179 121.75 106.652 121.554 107.146 121.554H158.995C159.488 121.554 159.962 121.75 160.31 122.099C160.659 122.448 160.855 122.921 160.855 123.415C160.855 123.908 160.659 124.381 160.31 124.73C159.962 125.079 159.488 125.275 158.995 125.275Z" fill="#E6E6E6"/>
<path d="M89.6618 105.532C94.0208 105.532 97.5544 101.998 97.5544 97.639C97.5544 93.28 94.0208 89.7464 89.6618 89.7464C85.3029 89.7464 81.7693 93.28 81.7693 97.639C81.7693 101.998 85.3029 105.532 89.6618 105.532Z" fill="#E6E6E6"/>
<path d="M89.6618 128.281C94.0208 128.281 97.5544 124.747 97.5544 120.388C97.5544 116.029 94.0208 112.496 89.6618 112.496C85.3029 112.496 81.7693 116.029 81.7693 120.388C81.7693 124.747 85.3029 128.281 89.6618 128.281Z" fill="#E6E6E6"/>
<path d="M151.321 141.746H107.146C106.652 141.746 106.179 141.55 105.83 141.201C105.481 140.852 105.285 140.379 105.285 139.885C105.285 139.392 105.481 138.919 105.83 138.57C106.179 138.221 106.652 138.025 107.146 138.025H151.321C151.814 138.025 152.288 138.221 152.636 138.57C152.985 138.919 153.181 139.392 153.181 139.885C153.181 140.379 152.985 140.852 152.636 141.201C152.288 141.55 151.814 141.746 151.321 141.746Z" fill="#E6E6E6"/>
<path d="M158.995 148.024H107.146C106.652 148.024 106.179 147.828 105.83 147.479C105.481 147.13 105.285 146.657 105.285 146.164C105.285 145.67 105.481 145.197 105.83 144.848C106.179 144.5 106.652 144.304 107.146 144.304H158.995C159.488 144.304 159.962 144.5 160.31 144.848C160.659 145.197 160.855 145.67 160.855 146.164C160.855 146.657 160.659 147.13 160.31 147.479C159.962 147.828 159.488 148.024 158.995 148.024Z" fill="#E6E6E6"/>
<path d="M89.6618 151.03C94.0208 151.03 97.5544 147.496 97.5544 143.137C97.5544 138.778 94.0208 135.245 89.6618 135.245C85.3029 135.245 81.7693 138.778 81.7693 143.137C81.7693 147.496 85.3029 151.03 89.6618 151.03Z" fill="#E6E6E6"/>
</g>
<defs>
<clipPath id="clip0_4_16709">
<rect width="175" height="163.383" fill="white"/>
</clipPath>
</defs>
</svg>
