<svg width="452" height="445" viewBox="0 0 452 445" fill="none" xmlns="http://www.w3.org/2000/svg">
<g clip-path="url(#clip0_4_16597)">
<path d="M445.289 134.084H6.30611C4.63406 134.086 3.03093 134.751 1.84863 135.933C0.666333 137.115 0.00146873 138.718 0 140.391V437.858C0.00146682 439.53 0.666332 441.133 1.84863 442.315C3.03093 443.497 4.63406 444.162 6.30611 444.164H445.289C446.201 444.164 447.102 443.966 447.93 443.584C448.757 443.202 449.493 442.645 450.084 441.951C450.134 441.897 450.18 441.839 450.222 441.777C450.598 441.317 450.903 440.803 451.126 440.251C451.443 439.493 451.605 438.679 451.603 437.857V140.391C451.601 138.717 450.935 137.113 449.751 135.931C448.567 134.748 446.962 134.084 445.289 134.084V134.084ZM449.802 437.858C449.803 438.737 449.543 439.598 449.057 440.331C448.625 440.976 448.038 441.503 447.35 441.864C446.713 442.193 446.006 442.364 445.289 442.363H6.30611C5.11162 442.362 3.96644 441.886 3.12181 441.042C2.27717 440.197 1.80202 439.052 1.80056 437.858V140.391C1.80201 139.196 2.27717 138.051 3.12181 137.206C3.96644 136.362 5.11161 135.886 6.30611 135.885H445.289C446.485 135.885 447.632 136.359 448.478 137.204C449.324 138.049 449.8 139.195 449.802 140.391V437.858Z" fill="#E6E6E6"/>
<path d="M450.698 159.359H0.898682V161.162H450.698V159.359Z" fill="white"/>
<path d="M16.2224 153.014C19.2094 153.014 21.6308 150.592 21.6308 147.605C21.6308 144.618 19.2094 142.197 16.2224 142.197C13.2354 142.197 10.814 144.618 10.814 147.605C10.814 150.592 13.2354 153.014 16.2224 153.014Z" fill="white"/>
<path d="M31.7717 153.014C34.7587 153.014 37.1801 150.592 37.1801 147.605C37.1801 144.618 34.7587 142.197 31.7717 142.197C28.7847 142.197 26.3633 144.618 26.3633 147.605C26.3633 150.592 28.7847 153.014 31.7717 153.014Z" fill="white"/>
<path d="M47.3208 153.014C50.3078 153.014 52.7292 150.592 52.7292 147.605C52.7292 144.618 50.3078 142.197 47.3208 142.197C44.3338 142.197 41.9124 144.618 41.9124 147.605C41.9124 150.592 44.3338 153.014 47.3208 153.014Z" fill="white"/>
<path d="M200.31 312.621C194.901 309.1 192.21 300.917 193.536 293.433C194.861 285.95 199.852 279.504 205.836 276.724C208.746 275.412 211.937 274.844 215.122 275.07C218.306 275.297 221.385 276.311 224.08 278.021C229.567 281.376 237.327 283.214 239.933 289.927C241.936 295.085 239.396 305.56 236.701 310.571C234.372 314.902 229.945 316.882 225.787 317.743C221.186 318.681 216.438 318.621 211.862 317.565C207.287 316.509 202.992 314.483 199.268 311.624L200.31 312.621Z" fill="#2F2E41"/>
<path d="M197.489 352.368L193.164 359.824L192.593 360.808L191.761 362.254H179.011L179.872 360.808L182.099 357.054L187.292 348.289L193.171 350.64L197.489 352.368Z" fill="#FFB8B8"/>
<path d="M178.056 362.254L175.728 360.808L175.438 360.627L190.054 333.991C190.683 332.838 191.534 331.822 192.558 331C193.582 330.178 194.759 329.568 196.021 329.204C197.613 328.729 199.3 328.667 200.924 329.023C201.871 329.223 202.783 329.564 203.629 330.035C203.977 330.226 204.312 330.439 204.634 330.672C205.87 331.538 206.885 332.683 207.599 334.013C208.448 335.57 208.868 337.326 208.814 339.099C208.761 340.872 208.237 342.598 207.295 344.102L201.662 353.106L196.845 360.808L195.941 362.254H178.056V362.254Z" fill="white"/>
<path d="M215.608 322.074C225.418 322.074 233.371 314.121 233.371 304.311C233.371 294.501 225.418 286.549 215.608 286.549C205.798 286.549 197.845 294.501 197.845 304.311C197.845 314.121 205.798 322.074 215.608 322.074Z" fill="#FFB8B8"/>
<path d="M233.439 362.254H193.511L193.692 361.741C193.591 361.43 193.497 361.119 193.41 360.808C193.316 360.482 193.236 360.149 193.164 359.824C192.515 356.797 192.518 353.666 193.171 350.639C195.377 339.806 204.178 331.004 204.178 331.004C204.33 330.889 204.482 330.78 204.634 330.672C205.943 329.713 207.364 328.917 208.865 328.3C215.402 325.588 222.258 326.68 226.865 328.083C228.469 328.568 230.038 329.165 231.559 329.869C232.094 330.122 232.383 330.281 232.383 330.281L232.839 344.174L233.388 360.808L233.439 362.254Z" fill="#00227B" fill-opacity="0.3"/>
<path d="M251.91 360.808L248.858 345.288L245.777 329.638C245.649 328.991 245.328 328.399 244.857 327.938C244.385 327.478 243.786 327.17 243.137 327.056L236.686 325.942L230.684 324.908C230.105 324.804 229.508 324.86 228.959 325.07C228.409 325.28 227.928 325.637 227.567 326.101C227.116 326.664 226.868 327.362 226.865 328.083C226.865 328.528 226.956 328.969 227.133 329.377C230.264 336.682 230.322 348.246 229.526 360.808C229.49 361.285 229.462 361.77 229.425 362.254H252.199L251.91 360.808Z" fill="white"/>
<path d="M208.865 328.3C208.732 327.773 208.47 327.288 208.104 326.888C207.737 326.488 207.276 326.186 206.763 326.008C206.251 325.83 205.702 325.782 205.166 325.869C204.63 325.956 204.124 326.175 203.694 326.506L200.924 329.023L189.584 339.35C189.231 339.667 188.954 340.06 188.774 340.5C187.494 343.559 184.999 349.598 182.099 357.054C181.629 358.269 181.144 359.52 180.646 360.808C180.472 361.285 180.284 361.769 180.096 362.254H198.783C198.935 361.769 199.087 361.285 199.239 360.808C200.071 358.182 200.881 355.608 201.662 353.105C203.947 345.837 206.008 339.234 207.599 334.013C208.04 332.567 208.443 331.231 208.807 330.006C208.977 329.453 208.997 328.864 208.865 328.3V328.3Z" fill="white"/>
<path d="M256.104 362.254H257.312L257.146 361.849L256.704 360.808L249.899 344.659L248.858 345.288L240.498 350.343L244.786 360.808L245.379 362.254H252.199H256.104Z" fill="#FFB8B8"/>
<path d="M249.205 331.851C248.284 329.441 246.467 327.48 244.134 326.379C241.801 325.277 239.132 325.121 236.686 325.942C236.374 326.046 236.067 326.166 235.768 326.304C234.054 327.068 232.594 328.305 231.559 329.869C231.136 330.494 230.789 331.166 230.525 331.872C230.055 333.098 229.833 334.405 229.872 335.717C229.91 337.029 230.208 338.32 230.749 339.517L232.839 344.174L240.317 360.808L240.968 362.254H256.104L257.146 361.849L259.851 360.808L260.227 360.663L249.205 331.851Z" fill="white"/>
<path d="M229.559 283.911C230.178 284.097 230.841 284.073 231.445 283.844C232.049 283.614 232.561 283.192 232.901 282.643C233.223 282.082 233.413 281.456 233.455 280.811C233.498 280.166 233.392 279.52 233.146 278.923C232.642 277.73 231.847 276.682 230.835 275.875C229.685 274.835 228.286 274.11 226.773 273.772C226.017 273.609 225.234 273.611 224.479 273.777C223.724 273.943 223.013 274.269 222.395 274.734C221.788 275.214 221.338 275.864 221.103 276.602C220.868 277.339 220.858 278.129 221.075 278.872C221.535 280.206 222.78 281.1 224.024 281.765C226.493 283.083 229.215 283.857 232.007 284.035L229.559 283.911Z" fill="#2F2E41"/>
<path d="M233.014 303.781C230.158 304.175 230.525 302.721 229.381 300.075C228.237 297.429 226.707 294.288 223.836 294.02C221.484 293.8 219.546 295.681 217.641 297.077C214.244 299.566 209.667 300.784 205.73 299.291C201.793 297.798 199.057 293.106 200.551 289.169C201.016 288.082 201.699 287.102 202.558 286.29C203.417 285.477 204.434 284.85 205.546 284.447C207.775 283.654 210.143 283.325 212.505 283.48C217.756 283.648 222.907 284.967 227.594 287.343C230.828 288.986 233.976 291.337 235.203 294.751C236.43 298.165 237.238 302.963 233.729 303.886L233.014 303.781Z" fill="#2F2E41"/>
<path d="M228.099 274.521C226.687 272.064 227.853 268.693 230.162 267.051C232.472 265.409 235.57 265.248 238.326 265.907C241.051 266.593 243.549 267.984 245.567 269.94C247.585 271.897 249.054 274.349 249.825 277.052C250.994 281.349 250.299 285.964 251.29 290.305C251.818 292.619 252.814 294.801 254.217 296.716C255.62 298.631 257.4 300.238 259.447 301.439C261.495 302.64 263.766 303.409 266.122 303.699C268.478 303.989 270.869 303.793 273.146 303.124C276.113 302.253 279.128 300.135 279.419 297.057C279.727 300.592 278.921 304.134 277.115 307.188C275.308 310.242 272.592 312.654 269.347 314.088C265.525 315.682 261.261 315.786 257.121 315.68C254.423 315.61 251.664 315.448 249.175 314.404C247.453 313.619 245.905 312.498 244.621 311.106C243.338 309.715 242.346 308.081 241.702 306.302C240.434 302.724 240.092 298.884 240.707 295.139C241.114 292.226 241.924 289.37 242.151 286.437C242.378 283.504 241.948 280.373 240.14 278.053C238.332 275.732 234.878 274.547 232.307 275.977C231.274 276.552 230.441 277.49 229.318 277.861C228.196 278.232 226.605 277.58 226.707 276.403L228.099 274.521Z" fill="#2F2E41"/>
<path d="M349.31 362.254L349.448 360.807L353.527 318.37C354.864 317.323 356.3 316.41 357.815 315.644C366.212 311.413 374.312 313.438 378.694 315.188C379.855 315.643 380.978 316.192 382.05 316.83L384.436 360.807L384.516 362.254H349.31Z" fill="#00227B" fill-opacity="0.3"/>
<path d="M368.412 307.076C378.222 307.076 386.175 299.123 386.175 289.313C386.175 279.503 378.222 271.551 368.412 271.551C358.602 271.551 350.65 279.503 350.65 289.313C350.65 299.123 358.602 307.076 368.412 307.076Z" fill="#FFB8B8"/>
<path d="M382.824 300.144C384.144 298.752 385.021 297 385.342 295.108C385.664 293.217 385.415 291.273 384.629 289.524C383.842 287.774 382.553 286.298 380.925 285.284C379.297 284.269 377.404 283.761 375.487 283.825C373.031 283.908 370.717 284.913 368.372 285.65C364.82 286.859 361.03 287.2 357.318 286.646C353.585 286.066 350.216 284.077 347.905 281.088C345.707 278.067 345.022 273.878 346.574 270.48C348.367 266.558 352.553 264.397 356.492 262.641C358.08 261.846 359.777 261.288 361.527 260.986C362.404 260.841 363.302 260.878 364.164 261.095C365.026 261.312 365.833 261.705 366.536 262.249C367.643 263.201 368.292 264.632 369.496 265.457C370.852 266.386 372.613 266.361 374.248 266.525C377.932 266.894 381.415 268.375 384.236 270.772C387.057 273.168 389.081 276.367 390.039 279.943C390.998 283.518 390.845 287.3 389.601 290.787C388.357 294.273 386.082 297.298 383.077 299.459L382.824 300.144Z" fill="#2F2E41"/>
<path d="M360.462 322.991L357.815 315.644L357.65 315.186C357.572 314.969 357.445 314.772 357.28 314.611C357.114 314.45 356.914 314.329 356.695 314.257C356.476 314.185 356.243 314.163 356.014 314.194C355.785 314.225 355.567 314.308 355.374 314.436L352.369 316.439C352.369 316.439 333.096 316.439 331.548 328.003C331.527 328.184 331.498 328.387 331.476 328.604C331.475 328.613 331.473 328.623 331.469 328.632C331.274 329.392 327.636 343.451 324.512 360.808C324.425 361.285 324.338 361.77 324.251 362.254H366.132V362.254C367.495 344.818 366.732 328.607 360.462 322.991Z" fill="white"/>
<path d="M410.421 360.808C408.136 343.002 404.867 328.603 404.867 328.603C404.838 328.387 404.809 328.184 404.787 328.003C403.247 316.439 383.974 316.439 383.974 316.439L380.97 314.437C380.778 314.309 380.559 314.226 380.33 314.195C380.101 314.164 379.869 314.186 379.649 314.258C379.43 314.33 379.23 314.452 379.064 314.613C378.899 314.774 378.772 314.971 378.694 315.188L375.881 322.991C369.611 328.607 368.848 344.818 370.211 362.253L370.211 362.254H410.602C410.544 361.769 410.479 361.285 410.421 360.808Z" fill="white"/>
<path d="M71.1816 320.265L66.8858 360.808L66.734 362.254H55.1123C55.2497 361.784 55.387 361.299 55.5318 360.808C58.8297 349.497 63.3207 332.986 62.8359 328.611C62.0766 321.784 67.3922 319.506 67.3922 319.506L67.7249 319.571L71.1816 320.265Z" fill="white"/>
<path d="M89.9247 307.751C99.7347 307.751 107.687 299.798 107.687 289.988C107.687 280.178 99.7347 272.226 89.9247 272.226C80.1147 272.226 72.1621 280.178 72.1621 289.988C72.1621 299.798 80.1147 307.751 89.9247 307.751Z" fill="#A0616A"/>
<path d="M112.918 353.648C112.022 355.299 111.288 357.033 110.726 358.826C110.517 359.462 110.314 360.128 110.126 360.808C109.989 361.278 109.866 361.762 109.743 362.254H62.8938C62.9591 361.777 63.0167 361.292 63.082 360.808C65.4759 341.896 67.4138 322.702 67.7249 319.571C67.7538 319.274 67.7683 319.122 67.7683 319.122C95.8429 304.326 116.331 323.678 116.331 323.678C116.331 323.678 116.36 323.816 116.404 324.083C116.852 326.788 119.137 342.583 112.918 353.648Z" fill="#00227B" fill-opacity="0.3"/>
<path d="M110.726 358.826L107.602 352.129L108.361 325.573L116.404 324.083L116.686 324.033C120.843 326.449 124.059 330.201 125.812 334.678C127.374 338.583 130.347 350.328 132.856 360.807C132.972 361.292 133.088 361.777 133.204 362.254H112.325L111.652 360.807L110.726 358.826Z" fill="white"/>
<path d="M139.3 242.926H36.5912C34.3882 242.928 32.2762 243.805 30.7183 245.363C29.1605 246.92 28.2842 249.032 28.2815 251.235V353.944C28.2842 356.147 29.1605 358.259 30.7183 359.817C32.2762 361.375 34.3882 362.251 36.5912 362.254H139.3C141.504 362.252 143.616 361.377 145.174 359.819C146.732 358.26 147.608 356.148 147.61 353.944V251.235C147.608 249.032 146.732 246.919 145.174 245.361C143.616 243.803 141.504 242.927 139.3 242.926ZM146.163 353.944C146.162 355.764 145.438 357.509 144.151 358.796C142.865 360.082 141.12 360.806 139.3 360.808H36.5912C34.7718 360.805 33.0277 360.081 31.7412 358.794C30.4547 357.508 29.7307 355.764 29.7279 353.944V251.235C29.7307 249.416 30.4547 247.672 31.7412 246.385C33.0277 245.099 34.7718 244.375 36.5912 244.372H139.3C141.12 244.374 142.865 245.097 144.151 246.384C145.438 247.671 146.162 249.416 146.163 251.235V353.944ZM66.8859 360.808L66.734 362.254H109.743C109.866 361.762 109.989 361.278 110.126 360.808H66.8859Z" fill="white"/>
<path d="M277.149 242.926H174.44C172.237 242.928 170.125 243.805 168.567 245.363C167.01 246.92 166.133 249.032 166.131 251.235V353.944C166.133 356.147 167.01 358.259 168.567 359.817C170.125 361.375 172.237 362.251 174.44 362.254H277.149C279.353 362.252 281.465 361.377 283.023 359.819C284.581 358.26 285.457 356.148 285.459 353.944V251.235C285.457 249.032 284.581 246.919 283.023 245.361C281.465 243.803 279.353 242.927 277.149 242.926V242.926ZM284.012 353.944C284.011 355.764 283.287 357.509 282.001 358.796C280.714 360.082 278.969 360.806 277.149 360.808H174.44C172.621 360.805 170.877 360.081 169.59 358.794C168.304 357.508 167.58 355.764 167.577 353.944V251.235C167.58 249.416 168.304 247.672 169.59 246.385C170.877 245.099 172.621 244.375 174.44 244.372H277.149C278.969 244.374 280.714 245.097 282.001 246.384C283.287 247.671 284.011 249.416 284.012 251.235V353.944ZM193.41 360.808C193.497 361.118 193.591 361.43 193.692 361.74L193.511 362.254H229.425C229.461 361.769 229.49 361.285 229.526 360.808H193.41Z" fill="white"/>
<path d="M415.006 242.926H312.297C310.094 242.927 307.981 243.803 306.423 245.361C304.865 246.919 303.989 249.032 303.987 251.235V353.944C303.989 356.148 304.865 358.261 306.423 359.819C307.981 361.377 310.094 362.253 312.297 362.254H415.006C417.209 362.251 419.321 361.375 420.879 359.817C422.436 358.259 423.313 356.147 423.315 353.944V251.235C423.313 249.032 422.436 246.92 420.879 245.363C419.321 243.805 417.209 242.928 415.006 242.926ZM421.869 353.944C421.866 355.764 421.142 357.508 419.856 358.794C418.569 360.081 416.825 360.805 415.006 360.808H312.297C310.477 360.806 308.732 360.082 307.446 358.796C306.159 357.509 305.435 355.764 305.434 353.944V251.235C305.435 249.416 306.159 247.671 307.446 246.384C308.732 245.097 310.477 244.374 312.297 244.372H415.006C416.825 244.375 418.569 245.099 419.856 246.385C421.142 247.672 421.866 249.416 421.869 251.235V353.944ZM366.24 360.808C366.204 361.285 366.168 361.769 366.132 362.254H397.295C397.353 361.777 397.418 361.292 397.475 360.808H366.24Z" fill="white"/>
<path d="M345.126 404.2H106.47C104.936 404.2 103.464 403.59 102.379 402.505C101.294 401.42 100.685 399.948 100.685 398.414C100.685 396.88 101.294 395.408 102.379 394.323C103.464 393.238 104.936 392.628 106.47 392.628H345.126C346.661 392.628 348.132 393.238 349.218 394.323C350.303 395.408 350.912 396.88 350.912 398.414C350.912 399.948 350.303 401.42 349.218 402.505C348.132 403.59 346.661 404.2 345.126 404.2Z" fill="#00227B" fill-opacity="0.3"/>
<path d="M278.231 212.551H173.366C171.832 212.551 170.36 211.942 169.275 210.857C168.19 209.772 167.581 208.3 167.581 206.766C167.581 205.231 168.19 203.76 169.275 202.675C170.36 201.59 171.832 200.98 173.366 200.98H278.231C279.765 200.98 281.237 201.59 282.322 202.675C283.407 203.76 284.016 205.231 284.016 206.766C284.016 208.3 283.407 209.772 282.322 210.857C281.237 211.942 279.765 212.551 278.231 212.551Z" fill="#00227B" fill-opacity="0.3"/>
<path d="M98.4207 305.464C99.0222 306.057 99.8175 306.413 100.661 306.467C101.504 306.521 102.338 306.27 103.01 305.758C107.196 302.655 110.872 298.792 113.047 294.081C115.539 288.682 115.817 282.057 112.812 276.926C110.272 272.589 105.786 269.79 101.316 267.491C99.5803 266.512 97.7106 265.791 95.7663 265.352C93.8012 264.919 91.7448 265.251 90.0158 266.28C89.1699 266.81 88.5035 267.583 88.1035 268.498C87.7035 269.413 87.5885 270.427 87.7734 271.408C85.6261 268.958 82.8758 267.112 79.7951 266.052C77.8552 265.294 75.731 265.14 73.7019 265.611C70.8651 266.415 68.7941 268.936 67.6614 271.658C66.7453 273.729 66.429 276.016 66.7484 278.257C66.9165 279.373 67.3168 280.441 67.9236 281.392C68.5304 282.343 69.33 283.156 70.2708 283.779C72.6162 285.23 75.6084 285.125 78.302 284.532C80.9956 283.94 83.603 282.908 86.3487 282.648C89.0944 282.387 92.1519 283.072 93.8229 285.266C94.9996 286.811 95.3018 288.83 95.566 290.754L96.9399 300.763C97.0523 302.211 97.422 303.627 98.0319 304.945C98.1375 305.134 98.2683 305.309 98.4207 305.464Z" fill="#2F2E41"/>
</g>
<defs>
<clipPath id="clip0_4_16597">
<rect width="451.603" height="444.164" fill="white"/>
</clipPath>
</defs>
</svg>
